<?xml version="1.0" encoding="iso-8859-1"?>
<!-- Generator: Adobe Illustrator 19.0.0, SVG Export Plug-In . SVG Version: 6.00 Build 0)  -->
<svg version="1.1" id="Layer_1" xmlns="http://www.w3.org/2000/svg" xmlns:xlink="http://www.w3.org/1999/xlink" x="0px" y="0px"
	 viewBox="0 0 511.998 511.998" style="enable-background:new 0 0 511.998 511.998;" xml:space="preserve">
<g>
	<circle style="fill:#415E72;" cx="187.008" cy="489.554" r="22.444"/>
	<circle style="fill:#415E72;" cx="324.994" cy="489.554" r="22.444"/>
</g>
<g>
	<rect x="234.93" y="214.955" style="fill:#CFDCE5;" width="42.134" height="66.951"/>
	<path style="fill:#CFDCE5;" d="M138.639,319.923h-20.828c-18.06,0-32.754-14.694-32.754-32.754v-74.553
		c0-4.905,3.976-8.881,8.881-8.881c4.905,0,8.881,3.976,8.881,8.881v74.553c0,8.266,6.726,14.992,14.992,14.992h20.826
		c4.905,0,8.881,3.976,8.881,8.881C147.519,315.946,143.543,319.923,138.639,319.923z"/>
	<path style="fill:#CFDCE5;" d="M394.185,319.923h-20.826c-4.905,0-8.881-3.976-8.881-8.881c0-4.905,3.976-8.881,8.881-8.881h20.826
		c8.266,0,14.992-6.726,14.992-14.992v-74.553c0-4.905,3.976-8.881,8.881-8.881c4.905,0,8.881,3.976,8.881,8.881v74.553
		C426.939,305.229,412.246,319.923,394.185,319.923z"/>
</g>
<path style="fill:#536B7C;" d="M390.963,302.315c0,4.855-1.966,9.26-5.163,12.445c-3.185,3.185-7.578,5.163-12.445,5.163H138.638
	c-9.722,0-17.608-7.886-17.608-17.608c0-1.978,0.154-3.931,0.45-5.826c1.255-7.993,5.033-15.145,10.491-20.604
	c6.773-6.773,16.116-10.953,26.442-10.953h195.18c18.662,0,34.127,13.689,36.921,31.557
	C390.809,298.383,390.963,300.337,390.963,302.315z"/>
<path style="fill:#CFDCE5;" d="M356.251,478.952H155.747l0,0c0-22.27,18.053-40.322,40.322-40.322h119.859
	C338.197,438.63,356.251,456.684,356.251,478.952L356.251,478.952z"/>
<path style="fill:#BAC6CC;" d="M240.473,438.63H196.07c-22.27,0-40.322,18.053-40.322,40.322l0,0h44.402l0,0
	C200.149,456.684,218.203,438.63,240.473,438.63z"/>
<rect x="242.165" y="308.086" style="fill:#CFDCE5;" width="27.656" height="142.391"/>
<rect x="242.165" y="319.927" style="fill:#BAC6CC;" width="27.656" height="38.701"/>
<path style="fill:#536B7C;" d="M100.387,191.019H86.58c-8.709,0-15.77,7.061-15.77,15.77v14.709h45.347v-14.709
	C116.157,198.078,109.096,191.019,100.387,191.019z"/>
<path style="fill:#415E72;" d="M390.963,302.315c0,4.855-1.966,9.26-5.163,12.445c-3.185,3.185-7.578,5.163-12.445,5.163H138.638
	c-9.722,0-17.608-7.886-17.608-17.608c0-1.978,0.154-3.931,0.45-5.826h269.034C390.809,298.383,390.963,300.337,390.963,302.315z"/>
<path style="fill:#536B7C;" d="M411.611,191.019h13.807c8.709,0,15.77,7.061,15.77,15.77v14.709h-45.347v-14.709
	C395.841,198.078,402.9,191.019,411.611,191.019z"/>
<rect x="234.93" y="197.808" style="fill:#BAC6CC;" width="42.134" height="42.134"/>
<path style="fill:#536B7C;" d="M265.996,0h-19.995c-56.595,0-102.476,45.88-102.476,102.476v67.982
	c0,24.572,19.919,44.491,44.491,44.491h135.964c24.572,0,44.491-19.919,44.491-44.491v-67.982C368.472,45.88,322.592,0,265.996,0z"
	/>
<path style="fill:#415E72;" d="M171.945,170.457v-67.982c0-55.183,43.623-100.157,98.264-102.369C268.81,0.05,267.409,0,265.996,0
	h-19.995c-56.595,0-102.476,45.88-102.476,102.476v67.982c0,24.572,19.919,44.491,44.491,44.491h28.419
	C191.864,214.949,171.945,195.029,171.945,170.457z"/>
<g>
	<circle style="fill:#CFDCE5;" cx="218.695" cy="77.43" r="8.881"/>
	<circle style="fill:#CFDCE5;" cx="293.295" cy="77.43" r="8.881"/>
	<circle style="fill:#CFDCE5;" cx="293.295" cy="141.373" r="8.881"/>
	<circle style="fill:#CFDCE5;" cx="218.695" cy="141.373" r="8.881"/>
</g>
<g>
</g>
<g>
</g>
<g>
</g>
<g>
</g>
<g>
</g>
<g>
</g>
<g>
</g>
<g>
</g>
<g>
</g>
<g>
</g>
<g>
</g>
<g>
</g>
<g>
</g>
<g>
</g>
<g>
</g>
</svg>
