<?xml version="1.0" encoding="iso-8859-1"?>
<!-- Generator: Adobe Illustrator 18.0.0, SVG Export Plug-In . SVG Version: 6.00 Build 0)  -->
<!DOCTYPE svg PUBLIC "-//W3C//DTD SVG 1.1//EN" "http://www.w3.org/Graphics/SVG/1.1/DTD/svg11.dtd">
<svg version="1.1" id="Capa_1" xmlns="http://www.w3.org/2000/svg" xmlns:xlink="http://www.w3.org/1999/xlink" x="0px" y="0px"
	 viewBox="0 0 59 59" style="enable-background:new 0 0 59 59;" xml:space="preserve">
<rect x="27.5" y="28" style="fill:#556080;" width="4" height="3"/>
<path style="fill:none;stroke:#C7CAC7;stroke-width:2;stroke-linecap:round;stroke-miterlimit:10;" d="M14.5,34L14.5,34
	c-2.209,0-4-1.791-4-4v-3"/>
<path style="fill:none;stroke:#C7CAC7;stroke-width:2;stroke-linecap:round;stroke-miterlimit:10;" d="M44.5,34L44.5,34
	c2.209,0,4-1.791,4-4v-3"/>
<g>
	<g>
		<path style="fill:#C7CAC7;" d="M45.483,49.916c-0.006-0.07-0.02-0.134-0.04-0.2c-0.018-0.06-0.037-0.117-0.066-0.172
			c-0.03-0.058-0.066-0.108-0.107-0.159c-0.04-0.05-0.079-0.096-0.128-0.137c-0.048-0.041-0.1-0.073-0.156-0.105
			c-0.058-0.033-0.116-0.061-0.182-0.082c-0.028-0.009-0.05-0.029-0.08-0.036l-13-3c-0.536-0.121-1.075,0.211-1.2,0.75
			c-0.124,0.539,0.211,1.075,0.75,1.2l0.163,0.038c-0.234,0.015-0.465,0.102-0.645,0.281c-0.391,0.391-0.391,1.023,0,1.414l3,3
			C33.988,52.902,34.244,53,34.5,53s0.512-0.098,0.707-0.293c0.391-0.391,0.391-1.023,0-1.414l-3-3
			c-0.07-0.07-0.155-0.113-0.238-0.158L43.5,50.796V52c0,0.552,0.448,1,1,1s1-0.448,1-1v-2C45.5,49.97,45.486,49.945,45.483,49.916z
			"/>
		<path style="fill:#C7CAC7;" d="M30.5,42c0-0.552-0.448-1-1-1s-1,0.448-1,1v4c0,0.552,0.448,1,1,1s1-0.448,1-1V42z"/>
		<path style="fill:#C7CAC7;" d="M27.562,48.012l0.163-0.038c0.538-0.125,0.874-0.661,0.75-1.2c-0.125-0.539-0.664-0.873-1.2-0.75
			l-13,3c-0.03,0.007-0.051,0.027-0.08,0.036c-0.065,0.021-0.123,0.049-0.182,0.082c-0.056,0.032-0.108,0.064-0.156,0.105
			c-0.048,0.041-0.088,0.087-0.128,0.137c-0.041,0.051-0.077,0.101-0.107,0.159c-0.029,0.055-0.048,0.112-0.066,0.172
			c-0.02,0.066-0.034,0.13-0.04,0.2C13.514,49.945,13.5,49.97,13.5,50v2c0,0.552,0.448,1,1,1s1-0.448,1-1v-1.204l11.531-2.661
			c-0.083,0.045-0.168,0.088-0.238,0.158l-3,3c-0.391,0.391-0.391,1.023,0,1.414C23.988,52.902,24.244,53,24.5,53
			s0.512-0.098,0.707-0.293l3-3c0.391-0.391,0.391-1.023,0-1.414C28.028,48.114,27.797,48.027,27.562,48.012z"/>
	</g>
	<rect x="26.5" y="36" style="fill:#546A79;" width="6" height="3"/>
	<rect x="27.5" y="39" style="fill:#38454F;" width="4" height="3"/>
	<rect x="27.5" y="46" style="fill:#AFB6BB;" width="4" height="4.038"/>
	
		<line style="fill:none;stroke:#AFB6BB;stroke-width:2;stroke-linecap:round;stroke-miterlimit:10;" x1="37.5" y1="40" x2="40.5" y2="40"/>
	
		<line style="fill:none;stroke:#AFB6BB;stroke-width:2;stroke-linecap:round;stroke-miterlimit:10;" x1="37.5" y1="40" x2="33.5" y2="36"/>
	<circle style="fill:#38454F;" cx="14" cy="55.5" r="3.5"/>
	<circle style="fill:#38454F;" cx="45" cy="55.5" r="3.5"/>
	<circle style="fill:#38454F;" cx="24" cy="55.5" r="3.5"/>
	<circle style="fill:#38454F;" cx="35" cy="55.5" r="3.5"/>
</g>
<path style="fill:#6B5B4B;" d="M42,36H17c-1.375,0-2.5-1.125-2.5-2.5v0c0-1.375,1.125-2.5,2.5-2.5h25c1.375,0,2.5,1.125,2.5,2.5v0
	C44.5,34.875,43.375,36,42,36z"/>
<path style="fill:#6B5B4B;" d="M45.432,24.275L41.515,3.268C41.161,1.374,39.5,0,37.563,0H21.437c-1.937,0-3.598,1.374-3.951,3.268
	l-3.917,21.007c-0.218,1.167,0.094,2.36,0.854,3.275C15.188,28.471,16.316,29,17.519,29h23.963c1.202,0,2.331-0.529,3.097-1.451
	C45.338,26.635,45.649,25.441,45.432,24.275z"/>
<g>
	<circle style="fill:#7A6C5E;" cx="24.5" cy="2" r="1"/>
	<circle style="fill:#7A6C5E;" cx="30.5" cy="2" r="1"/>
	<circle style="fill:#7A6C5E;" cx="36.5" cy="2" r="1"/>
	<circle style="fill:#7A6C5E;" cx="21.5" cy="5" r="1"/>
	<circle style="fill:#7A6C5E;" cx="21.5" cy="11" r="1"/>
	<circle style="fill:#7A6C5E;" cx="18.5" cy="8" r="1"/>
	<circle style="fill:#7A6C5E;" cx="24.5" cy="8" r="1"/>
	<circle style="fill:#7A6C5E;" cx="18.5" cy="14" r="1"/>
	<circle style="fill:#7A6C5E;" cx="24.5" cy="14" r="1"/>
	<circle style="fill:#7A6C5E;" cx="27.5" cy="5" r="1"/>
	<circle style="fill:#7A6C5E;" cx="33.5" cy="5" r="1"/>
	<circle style="fill:#7A6C5E;" cx="27.5" cy="11" r="1"/>
	<circle style="fill:#7A6C5E;" cx="33.5" cy="11" r="1"/>
	<circle style="fill:#7A6C5E;" cx="30.5" cy="8" r="1"/>
	<circle style="fill:#7A6C5E;" cx="36.5" cy="8" r="1"/>
	<circle style="fill:#7A6C5E;" cx="30.5" cy="14" r="1"/>
	<circle style="fill:#7A6C5E;" cx="36.5" cy="14" r="1"/>
	<circle style="fill:#7A6C5E;" cx="39.5" cy="5" r="1"/>
	<circle style="fill:#7A6C5E;" cx="39.5" cy="11" r="1"/>
	<circle style="fill:#7A6C5E;" cx="42.5" cy="14" r="1"/>
	<circle style="fill:#7A6C5E;" cx="21.5" cy="17" r="1"/>
	<circle style="fill:#7A6C5E;" cx="15.5" cy="23" r="1"/>
	<circle style="fill:#7A6C5E;" cx="21.5" cy="23" r="1"/>
	<circle style="fill:#7A6C5E;" cx="18.5" cy="20" r="1"/>
	<circle style="fill:#7A6C5E;" cx="24.5" cy="20" r="1"/>
	<circle style="fill:#7A6C5E;" cx="18.5" cy="26" r="1"/>
	<circle style="fill:#7A6C5E;" cx="24.5" cy="26" r="1"/>
	<circle style="fill:#7A6C5E;" cx="27.5" cy="17" r="1"/>
	<circle style="fill:#7A6C5E;" cx="33.5" cy="17" r="1"/>
	<circle style="fill:#7A6C5E;" cx="27.5" cy="23" r="1"/>
	<circle style="fill:#7A6C5E;" cx="33.5" cy="23" r="1"/>
	<circle style="fill:#7A6C5E;" cx="30.5" cy="20" r="1"/>
	<circle style="fill:#7A6C5E;" cx="36.5" cy="20" r="1"/>
	<circle style="fill:#7A6C5E;" cx="30.5" cy="26" r="1"/>
	<circle style="fill:#7A6C5E;" cx="36.5" cy="26" r="1"/>
	<circle style="fill:#7A6C5E;" cx="39.5" cy="17" r="1"/>
	<circle style="fill:#7A6C5E;" cx="39.5" cy="23" r="1"/>
	<circle style="fill:#7A6C5E;" cx="42.5" cy="20" r="1"/>
	<circle style="fill:#7A6C5E;" cx="42.5" cy="26" r="1"/>
</g>
<path style="fill:#556080;" d="M11.5,27h-2c-1.1,0-2-0.9-2-2v0c0-1.1,0.9-2,2-2h2c1.1,0,2,0.9,2,2v0C13.5,26.1,12.6,27,11.5,27z"/>
<path style="fill:#556080;" d="M47.5,27h2c1.1,0,2-0.9,2-2v0c0-1.1-0.9-2-2-2h-2c-1.1,0-2,0.9-2,2v0C45.5,26.1,46.4,27,47.5,27z"/>
<g>
</g>
<g>
</g>
<g>
</g>
<g>
</g>
<g>
</g>
<g>
</g>
<g>
</g>
<g>
</g>
<g>
</g>
<g>
</g>
<g>
</g>
<g>
</g>
<g>
</g>
<g>
</g>
<g>
</g>
</svg>
