<?xml version="1.0" encoding="iso-8859-1"?>
<!-- Generator: Adobe Illustrator 18.0.0, SVG Export Plug-In . SVG Version: 6.00 Build 0)  -->
<!DOCTYPE svg PUBLIC "-//W3C//DTD SVG 1.1//EN" "http://www.w3.org/Graphics/SVG/1.1/DTD/svg11.dtd">
<svg version="1.1" id="Capa_1" xmlns="http://www.w3.org/2000/svg" xmlns:xlink="http://www.w3.org/1999/xlink" x="0px" y="0px"
	 viewBox="0 0 512 512" style="enable-background:new 0 0 512 512;" xml:space="preserve">
<g>
	<g>
		<g>
			<path style="fill:#566E7F;" d="M280,376h-48c-4.418,0-8-3.582-8-8v-16h64v16C288,372.418,284.418,376,280,376z"/>
		</g>
	</g>
	<path style="fill:#ED2C39;" d="M152,256h208c4.446,0,8.68-1.848,11.711-5.098c3.023-3.25,4.562-7.614,4.25-12.043L363.149,59.442
		C360.766,26.11,332.718,0,299.305,0h-86.61c-33.414,0-61.461,26.11-63.844,59.442l-12.812,179.418
		c-0.313,4.43,1.226,8.793,4.25,12.043C143.32,254.152,147.554,256,152,256z"/>
	<path style="fill:#ED2C39;" d="M367.859,288.008c-0.117-0.004-0.797-0.008-0.906-0.008H145.031c-0.078,0-0.734,0.004-0.813,0.004
		c-18.297,0.281-31.984,13.969-31.851,31.84C112.508,338.176,126.734,352,145.453,352h221.078c18.719,0,32.946-13.824,33.086-32.152
		C399.75,301.973,386.054,288.285,367.859,288.008z"/>
	<path style="fill:#B1C3D0;" d="M344,376h-20.687l-24.001-24H288v11.312l26.344,26.344c1.5,1.5,3.531,2.344,5.656,2.344h24
		c4.421,0,8-3.583,8-8S348.421,376,344,376z"/>
	<g>
		<path style="fill:#566E7F;" d="M120,232c0,4.4-3.6,8-8,8H64c-4.4,0-8-3.6-8-8v-16c0-4.4,3.6-8,8-8h48c4.4,0,8,3.6,8,8V232z"/>
	</g>
	<g>
		<path style="fill:#566E7F;" d="M456,232c0,4.4-3.6,8-8,8h-48c-4.4,0-8-3.6-8-8v-16c0-4.4,3.6-8,8-8h48c4.4,0,8,3.6,8,8V232z"/>
	</g>
	<g>
		<circle style="fill:#35495C;" cx="256" cy="488" r="24"/>
	</g>
	<g>
		<circle style="fill:#35495C;" cx="360" cy="488" r="24"/>
	</g>
	<g>
		<circle style="fill:#35495C;" cx="152" cy="488" r="24"/>
	</g>
	<g>
		<circle style="fill:#566E7F;" cx="152" cy="488" r="8"/>
	</g>
	<g>
		<circle style="fill:#566E7F;" cx="256" cy="488" r="8"/>
	</g>
	<g>
		<circle style="fill:#566E7F;" cx="360" cy="488" r="8"/>
	</g>
	<g>
		<rect x="232" y="256" style="fill:#566E7F;" width="48" height="32"/>
	</g>
	<g>
		<circle style="fill:#CB202C;" cx="224" cy="96" r="16"/>
	</g>
	<g>
		<circle style="fill:#CB202C;" cx="288" cy="96" r="16"/>
	</g>
	<g>
		<circle style="fill:#CB202C;" cx="224" cy="160" r="16"/>
	</g>
	<g>
		<circle style="fill:#CB202C;" cx="288" cy="160" r="16"/>
	</g>
	<path style="fill:#B1C3D0;" d="M416,240v56c0,8.824-7.18,16-16,16h-1.364c0.597,2.511,1.001,5.106,0.981,7.848
		c-0.022,2.856-0.494,5.55-1.164,8.152H400c17.649,0,32-14.355,32-32v-56H416z"/>
	<path style="fill:#B1C3D0;" d="M112.367,319.844c-0.021-2.74,0.384-5.334,0.98-7.844H112c-8.82,0-16-7.176-16-16v-56H80v56
		c0,17.645,14.351,32,32,32h1.532C112.861,325.396,112.389,322.702,112.367,319.844z"/>
	<path style="fill:#B1C3D0;" d="M367.845,448.024c0.003-3.647-2.345-6.964-6.048-7.821L264,417.635V376h-16v41.635l-97.797,22.568
		c-3.696,0.855-6.042,4.161-6.049,7.801c-0.06-0.001-0.093-0.002-0.154-0.004v17.47c2.514-0.894,5.18-1.47,8-1.47
		s5.486,0.576,8,1.47v-11.104l88-20.308v31.413c2.514-0.894,5.18-1.47,8-1.47s5.486,0.576,8,1.47v-31.413l88,20.308v11.104
		c2.514-0.894,5.18-1.47,8-1.47s5.486,0.576,8,1.47V448C367.942,448.009,367.902,448.015,367.845,448.024z"/>
	<rect x="248" y="376" style="fill:#8EADBE;" width="16" height="16"/>
	<rect x="232" y="256" style="fill:#35495C;" width="48" height="8"/>
	<rect x="224" y="352" style="fill:#35495C;" width="64" height="8"/>
</g>
<g>
</g>
<g>
</g>
<g>
</g>
<g>
</g>
<g>
</g>
<g>
</g>
<g>
</g>
<g>
</g>
<g>
</g>
<g>
</g>
<g>
</g>
<g>
</g>
<g>
</g>
<g>
</g>
<g>
</g>
</svg>
