<?xml version="1.0" encoding="iso-8859-1"?>
<!-- Generator: Adobe Illustrator 18.0.0, SVG Export Plug-In . SVG Version: 6.00 Build 0)  -->
<!DOCTYPE svg PUBLIC "-//W3C//DTD SVG 1.1//EN" "http://www.w3.org/Graphics/SVG/1.1/DTD/svg11.dtd">
<svg version="1.1" id="Capa_1" xmlns="http://www.w3.org/2000/svg" xmlns:xlink="http://www.w3.org/1999/xlink" x="0px" y="0px"
	 viewBox="0 0 58 58" style="enable-background:new 0 0 58 58;" xml:space="preserve">
<path style="fill:none;stroke:#C7CAC7;stroke-width:2;stroke-linecap:round;stroke-miterlimit:10;" d="M13,34L13,34
	c-2.209,0-4-1.791-4-4v-3"/>
<path style="fill:#38454F;" d="M10,27H8c-1.1,0-2-0.9-2-2v0c0-1.1,0.9-2,2-2h2c1.1,0,2,0.9,2,2v0C12,26.1,11.1,27,10,27z"/>
<path style="fill:none;stroke:#C7CAC7;stroke-width:2;stroke-linecap:round;stroke-miterlimit:10;" d="M45,34L45,34
	c2.209,0,4-1.791,4-4v-3"/>
<path style="fill:#38454F;" d="M48,27h2c1.1,0,2-0.9,2-2v0c0-1.1-0.9-2-2-2h-2c-1.1,0-2,0.9-2,2v0C46,26.1,46.9,27,48,27z"/>
<g>
	<path style="fill:#C7CAC7;" d="M44.983,48.916c-0.006-0.07-0.02-0.134-0.04-0.2c-0.018-0.06-0.037-0.117-0.066-0.172
		c-0.03-0.058-0.066-0.108-0.107-0.159c-0.04-0.05-0.079-0.096-0.128-0.137c-0.048-0.041-0.1-0.073-0.156-0.105
		c-0.058-0.033-0.116-0.061-0.182-0.082c-0.028-0.009-0.05-0.029-0.08-0.036l-13-3c-0.536-0.121-1.075,0.211-1.2,0.75
		c-0.124,0.539,0.211,1.075,0.75,1.2l0.163,0.038c-0.234,0.015-0.465,0.102-0.645,0.281c-0.391,0.391-0.391,1.023,0,1.414l3,3
		C33.488,51.902,33.744,52,34,52s0.512-0.098,0.707-0.293c0.391-0.391,0.391-1.023,0-1.414l-3-3c-0.07-0.07-0.155-0.113-0.238-0.158
		L43,49.796V51c0,0.552,0.448,1,1,1s1-0.448,1-1v-2C45,48.97,44.986,48.945,44.983,48.916z"/>
	<path style="fill:#C7CAC7;" d="M30,41c0-0.552-0.448-1-1-1s-1,0.448-1,1v4c0,0.552,0.448,1,1,1s1-0.448,1-1V41z"/>
	<path style="fill:#C7CAC7;" d="M27.062,47.012l0.163-0.038c0.538-0.125,0.874-0.661,0.75-1.2c-0.125-0.539-0.664-0.873-1.2-0.75
		l-13,3c-0.03,0.007-0.051,0.027-0.08,0.036c-0.065,0.021-0.123,0.049-0.182,0.082c-0.056,0.032-0.108,0.064-0.156,0.105
		c-0.048,0.041-0.088,0.087-0.128,0.137c-0.041,0.051-0.077,0.101-0.107,0.159c-0.029,0.055-0.048,0.112-0.066,0.172
		c-0.02,0.066-0.034,0.13-0.04,0.2C13.014,48.945,13,48.97,13,49v2c0,0.552,0.448,1,1,1s1-0.448,1-1v-1.204l11.531-2.661
		c-0.083,0.045-0.168,0.088-0.238,0.158l-3,3c-0.391,0.391-0.391,1.023,0,1.414C23.488,51.902,23.744,52,24,52
		s0.512-0.098,0.707-0.293l3-3c0.391-0.391,0.391-1.023,0-1.414C27.528,47.114,27.297,47.027,27.062,47.012z"/>
</g>
<rect x="26" y="35" style="fill:#546A79;" width="6" height="3"/>
<rect x="27" y="38" style="fill:#38454F;" width="4" height="3"/>
<rect x="27" y="45" style="fill:#AFB6BB;" width="4" height="4.038"/>
<line style="fill:none;stroke:#AFB6BB;stroke-width:2;stroke-linecap:round;stroke-miterlimit:10;" x1="37" y1="39" x2="40" y2="39"/>
<line style="fill:none;stroke:#AFB6BB;stroke-width:2;stroke-linecap:round;stroke-miterlimit:10;" x1="37" y1="39" x2="33" y2="35"/>
<circle style="fill:#38454F;" cx="13.5" cy="54.5" r="3.5"/>
<circle style="fill:#38454F;" cx="44.5" cy="54.5" r="3.5"/>
<circle style="fill:#38454F;" cx="23.5" cy="54.5" r="3.5"/>
<circle style="fill:#38454F;" cx="34.5" cy="54.5" r="3.5"/>
<path style="fill:#546A79;" d="M29,31L29,31c-7.18,0-13-5.82-13-13V6.868C16,3.075,19.075,0,22.868,0h12.264
	C38.925,0,42,3.075,42,6.868V18C42,25.18,36.18,31,29,31z"/>
<path style="fill:#38454F;" d="M31.788,12.373c0.426-0.866,0.426-1.881,0-2.747l0.919-0.919c0.391-0.391,0.391-1.023,0-1.414
	s-1.023-0.391-1.414,0l-0.928,0.928c-0.856-0.401-1.874-0.401-2.73,0l-0.928-0.928c-0.391-0.391-1.023-0.391-1.414,0
	s-0.391,1.023,0,1.414l0.92,0.92c-0.426,0.866-0.426,1.88,0,2.747l-0.92,0.92c-0.391,0.391-0.391,1.023,0,1.414
	C25.488,14.902,25.744,15,26,15s0.512-0.098,0.707-0.293l0.918-0.918c0.424,0.21,0.888,0.332,1.375,0.332s0.951-0.123,1.375-0.332
	l0.918,0.918C31.488,14.902,31.744,15,32,15s0.512-0.098,0.707-0.293c0.391-0.391,0.391-1.023,0-1.414L31.788,12.373z
	 M28.207,11.793c-0.437-0.438-0.437-1.148,0-1.586C28.419,9.995,28.701,9.878,29,9.878s0.581,0.117,0.793,0.329
	c0.437,0.438,0.437,1.148,0,1.586C29.369,12.217,28.631,12.217,28.207,11.793z"/>
<path style="fill:#556080;" d="M45,33H13v0c0-2.209,1.791-4,4-4h24C43.209,29,45,30.791,45,33L45,33z"/>
<rect x="13" y="33" style="fill:#556080;" width="32" height="2"/>
<g>
</g>
<g>
</g>
<g>
</g>
<g>
</g>
<g>
</g>
<g>
</g>
<g>
</g>
<g>
</g>
<g>
</g>
<g>
</g>
<g>
</g>
<g>
</g>
<g>
</g>
<g>
</g>
<g>
</g>
</svg>
