<?xml version="1.0" encoding="iso-8859-1"?>
<!-- Generator: Adobe Illustrator 19.0.0, SVG Export Plug-In . SVG Version: 6.00 Build 0)  -->
<svg version="1.1" id="Layer_1" xmlns="http://www.w3.org/2000/svg" xmlns:xlink="http://www.w3.org/1999/xlink" x="0px" y="0px"
	 viewBox="0 0 480 480" style="enable-background:new 0 0 480 480;" xml:space="preserve">
<g>
	<g>
		<path d="M416,160c-17.648,0-32,14.352-32,32v8c0,4.424,3.584,8,8,8h16v40c0,13.232-10.768,24-24,24
			c0-19.312-13.768-35.472-32-39.192V144V40c0-22.056-17.944-40-40-40H168c-22.056,0-40,17.944-40,40v104v88.808
			c-18.232,3.72-32,19.872-32,39.192c-13.232,0-24-10.768-24-24v-40h16c4.416,0,8-3.576,8-8v-8c0-17.648-14.352-32-32-32
			s-32,14.352-32,32v8c0,4.424,3.584,8,8,8h16v40c0,22.056,17.944,40,40,40v16c0,4.424,3.584,8,8,8h104v48c0,4.424,3.584,8,8,8h16
			v24h-80c-22.056,0-40,17.944-40,40v1.472c-9.288,3.312-16,12.112-16,22.528c0,13.232,10.768,24,24,24s24-10.768,24-24
			c0-10.416-6.712-19.216-16-22.528V432c0-13.232,10.768-24,24-24h80v25.472c-9.288,3.312-16,12.112-16,22.528
			c0,13.232,10.768,24,24,24s24-10.768,24-24c0-10.416-6.712-19.216-16-22.528V408h80c13.232,0,24,10.768,24,24v1.472
			c-9.288,3.312-16,12.112-16,22.528c0,13.232,10.768,24,24,24s24-10.768,24-24c0-10.416-6.712-19.216-16-22.528V432
			c0-22.056-17.944-40-40-40h-80v-24h16c4.416,0,8-3.576,8-8v-48h104c4.416,0,8-3.576,8-8v-16c22.056,0,40-17.944,40-40v-40h16
			c4.416,0,8-3.576,8-8v-8C448,174.352,433.648,160,416,160z M48,192c0-8.824,7.176-16,16-16s16,7.176,16,16H48z M120,464
			c-4.408,0-8-3.584-8-8c0-4.416,3.592-8,8-8s8,3.584,8,8C128,460.416,124.408,464,120,464z M360,448c4.408,0,8,3.584,8,8
			c0,4.416-3.592,8-8,8c-4.408,0-8-3.584-8-8C352,451.584,355.592,448,360,448z M144,40c0-13.232,10.768-24,24-24h144
			c13.232,0,24,10.768,24,24v96H144V40z M144,152h192v16H144V152z M144,184h192v16H144V184z M144,216h192v16H144V216z M240,464
			c-4.408,0-8-3.584-8-8c0-4.416,3.592-8,8-8s8,3.584,8,8C248,460.416,244.408,464,240,464z M256,352h-32v-40h32V352z M368,296H264
			h-48H112v-24c0-13.232,10.768-24,24-24h208c13.232,0,24,10.768,24,24V296z M400,192c0-8.824,7.176-16,16-16
			c8.824,0,16,7.176,16,16H400z"/>
	</g>
</g>
<g>
	<g>
		<rect x="96" y="344" width="16" height="16"/>
	</g>
</g>
<g>
	<g>
		<rect x="64" y="344" width="16" height="16"/>
	</g>
</g>
<g>
	<g>
		<rect x="32" y="344" width="16" height="16"/>
	</g>
</g>
<g>
	<g>
		<rect x="432" y="344" width="16" height="16"/>
	</g>
</g>
<g>
	<g>
		<rect x="400" y="344" width="16" height="16"/>
	</g>
</g>
<g>
	<g>
		<rect x="368" y="344" width="16" height="16"/>
	</g>
</g>
<g>
</g>
<g>
</g>
<g>
</g>
<g>
</g>
<g>
</g>
<g>
</g>
<g>
</g>
<g>
</g>
<g>
</g>
<g>
</g>
<g>
</g>
<g>
</g>
<g>
</g>
<g>
</g>
<g>
</g>
</svg>
